# xmcd CD database file
#
# Track frame offsets:
#	150
#	13502
#	26662
#	37816
#	52099
#	70182
#	82763
#	95955
#	107476
#	121764
#	131829
#
# Disc length: 1919 seconds
#
# Revision: 2
# Processed by: cddbd v1.5.2PL0 Copyright (c) Steve Scherf et al.
# Submitted via: CDex 1.50
#
DISCID=88077d0b
DTITLE=Charlie Rich - Behind Closed Doors
DYEAR=1973
DGENRE=Country
TTITLE0=Behind Closed Doors
TTITLE1=If You Would'nt Be My Baby
TTITLE2=You Never Really Wanted Me
TTITLE3=A Sunday Kind Of Woman
TTITLE4=Peace On You
TTITLE5=The Most Beautiful Girl
TTITLE6=I Take It On Home
TTITLE7='Til I Can't Take It Anymore
TTITLE8=We Love Each Other
TTITLE9=I'm Not Going Hungry Anymore
TTITLE10=Nothing In The World (To Do With Me)
EXTD=YEAR: 1973
EXTT0=
EXTT1=
EXTT2=
EXTT3=
EXTT4=
EXTT5=
EXTT6=
EXTT7=
EXTT8=
EXTT9=
EXTT10=
PLAYORDER=
